<?xml version="1.0" encoding="utf-8"?>
<!DOCTYPE svg PUBLIC "-//W3C//DTD SVG 20010904//EN" "http://www.w3.org/TR/2001/REC-SVG-20010904/DTD/svg10.dtd">
<svg version="1.0" xmlns="http://www.w3.org/2000/svg" width="151pt" height="340pt" viewBox="0 0 151 340" style="" preserveAspectRatio="xMidYMid meet">
<g fill="#003C52FE" stroke="#003C52FE">
<path d="M 45.750 15.064 C 44.788 15.633 44.000 15.878 44.000 15.606 C 44.000 14.522 29.680 21.105 25.486 24.117 C 17.373 29.944 8.754 43.643 7.203 53.175 C 6.817 55.554 6.500 102.545 6.500 157.599 L 6.500 257.699 9.000 260.426 C 10.375 261.927 12.212 263.907 13.082 264.827 C 13.953 265.747 17.292 269.650 20.502 273.500 C 23.713 277.350 27.155 281.400 28.151 282.500 C 31.579 286.286 34.513 289.653 39.500 295.522 C 47.594 305.047 53.916 311.916 63.641 321.750 C 75.893 334.139 75.552 334.159 89.058 320.228 C 99.252 309.713 102.736 305.909 114.000 292.998 C 117.025 289.530 121.525 284.450 124.000 281.708 C 126.475 278.966 129.100 275.867 129.834 274.822 C 130.568 273.776 132.303 271.701 133.690 270.210 C 135.076 268.720 137.626 265.760 139.355 263.633 C 141.085 261.505 143.063 259.175 143.750 258.454 C 145.442 256.679 145.580 60.879 143.895 52.799 C 140.256 35.351 124.674 19.108 108.000 15.384 C 102.439 14.142 47.783 13.861 45.750 15.064 M 132.757 181.839 L 132.500 249.678 120.250 244.210 L 108.000 238.741 108.000 225.410 C 108.000 212.983 107.851 211.940 105.811 210.039 C 103.064 207.479 101.530 207.470 99.000 210.000 C 97.192 211.808 97.000 213.333 97.000 225.916 L 97.000 239.832 93.250 242.790 C 79.726 253.457 74.808 254.347 65.162 247.870 C 53.458 240.011 54.000 241.112 54.000 225.203 C 54.000 212.675 53.807 211.136 52.040 209.536 C 49.419 207.164 45.244 208.227 43.965 211.593 C 43.434 212.988 43.000 219.644 43.000 226.383 L 43.000 238.635 30.750 244.210 L 18.500 249.784 18.243 181.892 L 17.986 114.000 75.500 114.000 L 133.014 114.000 132.757 181.839 M 111.280 28.874 C 118.845 32.632 125.536 39.313 129.219 46.786 C 132.325 53.087 132.518 54.125 132.829 66.221 L 133.159 79.000 75.579 79.000 L 18.000 79.000 18.000 68.605 C 18.000 55.284 20.370 47.081 26.343 39.731 C 30.588 34.507 38.831 28.742 44.500 27.031 C 46.150 26.533 60.775 26.210 77.000 26.313 C 105.855 26.496 106.605 26.552 111.280 28.874 M 56.271 255.957 C 67.939 263.895 73.505 265.366 82.500 262.886 C 86.351 261.824 89.030 260.242 99.195 253.026 L 103.890 249.692 112.695 253.557 C 122.301 257.773 126.000 259.832 126.000 260.962 C 126.000 261.768 124.746 263.283 115.828 273.250 C 112.506 276.963 108.989 281.013 108.013 282.250 C 107.037 283.488 104.384 286.525 102.119 289.000 C 99.853 291.474 98.000 293.837 98.000 294.250 C 98.000 294.662 88.183 295.000 76.184 295.000 L 54.368 295.000 50.945 291.250 C 49.063 289.188 46.617 286.331 45.511 284.902 C 43.445 282.233 33.686 270.926 30.986 268.073 C 30.154 267.193 28.438 265.019 27.173 263.243 L 24.873 260.012 35.186 255.092 C 40.859 252.386 45.954 250.133 46.509 250.086 C 47.063 250.039 51.457 252.680 56.271 255.957 M 133.000 96.500 L 133.000 102.000 75.500 102.000 L 18.000 102.000 18.000 96.500 L 18.000 91.000 75.500 91.000 L 133.000 91.000 133.000 96.500 "/></g>
<g fill="#FEB646FE" stroke="#FEB646FE">
<path d="M 19.000 181.939 L 19.000 248.878 30.250 243.601 L 41.500 238.323 41.746 226.912 C 42.026 213.923 42.378 211.765 44.573 209.570 C 46.693 207.449 51.315 207.586 53.345 209.829 C 54.720 211.348 55.000 214.039 55.000 225.732 L 55.000 239.806 60.601 243.653 C 63.681 245.769 67.393 248.285 68.851 249.245 C 70.385 250.255 73.408 250.992 76.032 250.995 C 79.945 250.999 81.619 250.240 88.282 245.434 L 96.000 239.868 96.000 226.157 C 96.000 210.293 96.821 208.000 102.500 208.000 C 108.109 208.000 109.000 210.368 109.000 225.281 L 109.000 238.116 118.264 242.416 C 123.359 244.781 128.528 247.033 129.750 247.421 L 131.972 248.126 132.236 181.563 L 132.500 115.000 75.750 115.000 L 19.000 115.000 19.000 181.939 M 60.866 172.957 C 69.394 182.242 80.936 182.392 89.682 173.332 C 91.981 170.950 94.283 169.000 94.797 169.000 C 95.310 169.000 96.916 169.933 98.365 171.073 C 103.999 175.504 99.563 184.612 89.323 189.641 C 84.378 192.069 82.293 192.498 75.495 192.487 C 68.763 192.477 66.576 192.027 61.737 189.660 C 55.269 186.495 51.175 181.855 50.347 176.749 C 49.875 173.843 50.213 172.978 52.529 171.156 C 54.037 169.970 55.711 169.000 56.250 169.000 C 56.790 169.000 58.867 170.781 60.866 172.957 M 55.326 139.976 C 60.093 145.641 59.625 153.790 54.293 157.984 C 46.135 164.401 36.567 155.065 39.900 143.940 C 41.316 139.212 44.260 137.000 49.134 137.000 C 51.998 137.000 53.382 137.665 55.326 139.976 M 107.055 138.030 C 112.713 141.057 113.659 153.316 108.573 157.691 C 103.647 161.928 96.216 159.926 94.075 153.785 C 91.940 147.660 93.619 140.486 97.750 138.080 C 100.029 136.753 104.623 136.728 107.055 138.030 "/></g>
<g fill="#FE8878FE" stroke="#FE8878FE">
<path d="M 47.000 27.126 C 47.000 27.681 46.100 27.849 45.000 27.500 C 43.853 27.136 43.000 27.320 43.000 27.933 C 43.000 28.520 42.663 28.911 42.250 28.802 C 40.843 28.430 37.000 30.132 37.000 31.126 C 37.000 31.672 36.578 31.857 36.061 31.538 C 35.545 31.219 34.659 31.755 34.092 32.729 C 33.525 33.703 33.047 34.074 33.030 33.554 C 32.994 32.425 26.000 39.033 26.000 40.196 C 26.000 40.638 25.084 41.916 23.964 43.036 C 22.843 44.157 22.195 45.507 22.523 46.036 C 22.850 46.566 22.677 47.000 22.138 47.000 C 21.316 47.000 20.055 50.446 19.394 54.500 C 19.304 55.050 19.119 55.950 18.982 56.500 C 18.845 57.050 18.681 62.335 18.617 68.245 L 18.500 78.990 75.500 78.991 L 132.500 78.991 132.500 66.996 C 132.500 60.398 132.275 54.999 132.000 54.999 C 131.725 54.999 131.429 53.775 131.342 52.280 C 131.255 50.785 130.690 49.397 130.086 49.195 C 129.482 48.994 129.242 48.418 129.553 47.915 C 129.864 47.412 129.615 47.000 129.000 47.000 C 128.385 47.000 128.160 46.550 128.500 46.000 C 128.840 45.450 128.615 45.000 128.000 45.000 C 127.385 45.000 127.162 44.547 127.504 43.993 C 127.847 43.439 127.426 42.717 126.569 42.388 C 125.712 42.059 125.215 41.461 125.464 41.058 C 125.713 40.655 124.136 38.586 121.959 36.460 C 119.781 34.334 118.000 32.972 118.000 33.433 C 118.000 33.895 116.814 33.086 115.364 31.636 C 113.020 29.293 111.131 28.506 108.750 28.882 C 108.338 28.947 108.000 28.502 108.000 27.893 C 108.000 27.284 107.339 27.040 106.532 27.349 C 105.725 27.659 104.804 27.492 104.487 26.979 C 103.674 25.664 47.000 25.809 47.000 27.126 "/></g>
<g fill="#FEE4C2FE" stroke="#FEE4C2FE">
<path d="M 47.000 251.102 C 48.205 251.963 48.057 252.076 46.249 251.680 C 45.010 251.409 44.229 251.562 44.513 252.021 C 44.797 252.480 44.123 253.144 43.015 253.495 C 41.907 253.847 41.000 254.610 41.000 255.190 C 41.000 255.846 40.432 255.774 39.500 255.000 C 38.382 254.072 38.000 254.056 38.000 254.937 C 38.000 255.586 37.550 255.840 37.000 255.500 C 36.450 255.160 36.000 255.407 36.000 256.048 C 36.000 256.691 35.304 256.947 34.448 256.618 C 33.434 256.229 33.144 256.425 33.612 257.181 C 34.095 257.962 33.769 258.125 32.612 257.681 C 31.456 257.238 31.130 257.401 31.612 258.181 C 32.095 258.962 31.769 259.125 30.612 258.681 C 29.456 258.238 29.130 258.401 29.612 259.181 C 30.097 259.966 29.765 260.124 28.583 259.670 C 27.106 259.104 27.195 259.579 29.155 262.750 C 30.429 264.813 31.366 266.725 31.236 267.000 C 31.106 267.275 31.413 267.500 31.917 267.500 C 32.421 267.500 33.167 267.834 33.575 268.241 C 33.982 268.649 35.032 268.446 35.908 267.790 C 37.221 266.806 37.289 266.834 36.297 267.951 C 35.393 268.969 35.373 269.829 36.216 271.403 C 36.833 272.556 37.262 273.725 37.169 274.000 C 37.076 274.275 37.450 274.556 38.000 274.625 C 38.550 274.694 39.338 274.860 39.750 274.993 C 40.163 275.127 40.838 275.184 41.250 275.118 C 41.663 275.053 42.056 275.900 42.125 277.000 C 42.380 281.073 42.525 281.500 43.654 281.500 C 45.263 281.500 50.026 286.814 49.737 288.288 C 49.607 288.955 50.037 289.396 50.692 289.269 C 51.348 289.142 52.750 290.138 53.807 291.482 L 55.730 293.926 76.615 294.027 C 94.222 294.112 97.459 293.903 97.237 292.697 C 97.092 291.910 97.655 290.702 98.487 290.011 C 99.319 289.320 100.056 289.035 100.125 289.378 C 100.194 289.720 100.306 289.438 100.375 288.750 C 100.444 288.063 101.025 287.500 101.667 287.500 C 103.011 287.500 104.443 286.249 104.625 284.917 C 104.694 284.413 104.806 283.550 104.875 283.000 C 104.944 282.450 105.675 282.000 106.500 282.000 C 107.325 282.000 107.888 281.458 107.750 280.795 C 107.613 280.133 107.950 279.564 108.500 279.530 C 110.417 279.414 111.909 277.927 111.411 276.628 C 111.135 275.909 111.604 274.743 112.454 274.038 C 113.305 273.332 114.056 273.035 114.125 273.378 C 114.194 273.720 114.306 273.438 114.375 272.750 C 114.444 272.063 115.175 271.500 116.000 271.500 C 116.852 271.500 117.554 270.528 117.625 269.250 C 117.694 268.013 117.806 266.412 117.875 265.694 C 117.945 264.958 119.176 264.413 120.697 264.444 C 122.954 264.491 123.418 264.050 123.543 261.734 C 123.682 259.162 123.570 259.079 121.946 260.549 C 120.935 261.464 119.949 261.726 119.605 261.170 C 119.279 260.642 119.796 259.839 120.756 259.387 C 122.351 258.635 122.342 258.589 120.650 258.849 C 119.557 259.017 119.066 258.702 119.452 258.078 C 119.862 257.415 119.466 257.268 118.388 257.681 C 117.231 258.125 116.905 257.962 117.388 257.181 C 117.870 256.401 117.544 256.238 116.388 256.681 C 115.132 257.164 114.891 256.985 115.490 256.015 C 116.005 255.182 115.920 254.931 115.261 255.339 C 114.684 255.695 112.570 255.300 110.562 254.462 C 108.555 253.623 106.412 253.245 105.801 253.623 C 105.082 254.068 104.976 253.848 105.502 252.997 C 106.123 251.992 105.749 251.851 103.906 252.393 C 102.583 252.782 100.928 253.218 100.228 253.362 C 99.529 253.506 99.267 253.933 99.645 254.312 C 100.024 254.690 99.808 255.056 99.167 255.125 C 97.213 255.334 95.956 255.741 96.750 255.907 C 97.163 255.993 96.683 256.683 95.683 257.441 C 94.684 258.198 93.854 258.971 93.838 259.159 C 93.822 259.347 93.587 259.140 93.315 258.701 C 93.043 258.261 91.762 259.044 90.467 260.441 C 88.906 262.126 87.534 262.758 86.393 262.320 C 85.158 261.847 84.895 262.021 85.461 262.937 C 86.053 263.894 85.686 264.035 84.000 263.500 C 82.366 262.981 81.955 263.118 82.500 264.000 C 83.060 264.907 82.427 265.033 80.000 264.500 C 77.728 264.001 76.956 264.119 77.434 264.893 C 77.878 265.612 77.025 266.000 75.000 266.000 C 73.096 266.000 72.132 265.595 72.525 264.960 C 72.946 264.279 72.224 264.157 70.435 264.606 C 68.627 265.060 67.922 264.935 68.352 264.239 C 68.765 263.571 68.214 263.393 66.845 263.751 C 65.377 264.135 64.914 263.949 65.396 263.169 C 65.872 262.398 65.514 262.235 64.302 262.671 C 63.255 263.047 62.846 262.941 63.326 262.417 C 63.781 261.919 63.557 261.512 62.826 261.508 C 62.097 261.503 61.388 261.065 61.252 260.534 C 61.115 260.002 59.765 259.548 58.252 259.524 C 56.116 259.491 55.836 259.267 57.000 258.527 C 57.825 258.002 58.050 257.625 57.500 257.688 C 56.950 257.751 55.600 257.301 54.500 256.687 C 53.400 256.073 53.063 255.499 53.750 255.410 C 55.153 255.230 54.270 254.839 52.003 254.635 C 51.179 254.561 50.448 253.938 50.378 253.250 C 50.307 252.563 50.180 252.338 50.095 252.750 C 50.009 253.163 49.481 252.713 48.920 251.750 C 48.359 250.788 47.360 250.007 46.700 250.015 C 45.947 250.025 46.059 250.430 47.000 251.102 M 110.000 277.845 C 110.275 278.036 110.194 278.380 109.819 278.612 C 108.701 279.303 107.819 277.099 108.675 275.750 C 109.269 274.813 109.472 274.876 109.484 276.000 C 109.493 276.825 109.725 277.655 110.000 277.845 M 74.350 269.242 C 73.923 269.934 73.576 269.719 73.422 268.668 C 73.286 267.745 73.593 267.249 74.104 267.564 C 74.615 267.880 74.726 268.635 74.350 269.242 "/></g>
<g fill="#0EAEE0FE" stroke="#0EAEE0FE">
<path d="M 19.000 96.500 L 19.000 102.000 76.000 102.000 L 133.000 102.000 133.000 96.500 L 133.000 91.000 76.000 91.000 L 19.000 91.000 19.000 96.500 "/></g>
<g fill="#003C52FE" stroke="#003C52FE">
<path d="M 53.223 171.557 C 47.995 175.218 52.404 184.087 61.729 188.666 C 66.606 191.061 68.740 191.500 75.500 191.500 C 82.258 191.500 84.395 191.061 89.270 188.668 C 98.594 184.091 103.006 175.219 97.777 171.557 C 96.555 170.701 95.226 170.000 94.824 170.000 C 94.422 170.000 92.144 171.977 89.762 174.394 C 81.163 183.116 69.837 183.116 61.238 174.394 C 58.856 171.977 56.578 170.000 56.176 170.000 C 55.774 170.000 54.445 170.701 53.223 171.557 "/></g>
<g fill="#003C52FE" stroke="#003C52FE">
<path d="M 44.831 138.506 C 41.598 140.290 39.555 145.870 40.347 150.752 C 41.918 160.433 52.949 162.152 56.651 153.293 C 60.517 144.041 52.645 134.194 44.831 138.506 "/></g>
<g fill="#003C52FE" stroke="#003C52FE">
<path d="M 99.110 138.372 C 95.878 140.195 94.078 143.723 94.035 148.316 C 93.972 155.154 97.201 158.917 103.177 158.968 C 108.798 159.017 111.323 155.279 110.781 147.711 C 110.330 141.414 108.413 138.548 104.000 137.575 C 102.625 137.271 100.425 137.630 99.110 138.372 "/></g>
<g fill="#003C52FE" stroke="#003C52FE">
<path d="M 125.039 327.189 C 123.573 328.762 123.000 330.729 123.000 334.189 L 123.000 339.000 136.750 338.820 C 144.313 338.721 148.363 338.471 145.750 338.265 L 141.000 337.890 141.000 333.100 C 141.000 326.800 139.047 325.000 132.210 325.000 C 128.218 325.000 126.625 325.486 125.039 327.189 "/></g>
<g fill="#D2BE48FE" stroke="#D2BE48FE">
<path d="M 132.000 182.250 C 131.725 218.963 131.841 249.000 132.257 249.000 C 132.673 249.000 132.898 218.963 132.757 182.250 L 132.500 115.500 132.000 182.250 "/></g>
<g fill="#003C52FE" stroke="#003C52FE">
<path d="M 90.001 338.250 C 90.000 338.663 94.575 339.000 100.167 339.000 C 105.758 339.000 110.036 338.703 109.673 338.340 C 108.751 337.417 90.002 337.331 90.001 338.250 "/></g>
<g fill="#FE8878FE" stroke="#FE8878FE">
<path d="M 86.000 323.966 L 79.500 330.547 86.000 323.966 L 92.500 317.385 86.000 323.966 "/></g>
<g fill="#FE8878FE" stroke="#FE8878FE">
<path d="M 65.500 324.500 L 71.000 330.000 65.500 324.500 L 60.000 319.000 65.500 324.500 "/></g>
<g fill="#FEE4C2FE" stroke="#FEE4C2FE">
<path d="M 131.000 28.000 L 135.000 32.000 131.000 28.000 L 127.000 24.000 131.000 28.000 "/></g>
<g fill="#FE8878FE" stroke="#FE8878FE">
<path d="M 52.000 310.000 L 55.000 313.000 52.000 310.000 L 49.000 307.000 52.000 310.000 "/></g>
<g fill="#FEE4C2FE" stroke="#FEE4C2FE">
<path d="M 57.000 316.000 L 59.500 318.500 57.000 316.000 L 54.500 313.500 57.000 316.000 "/></g>
<g fill="#FEE4C2FE" stroke="#FEE4C2FE">
<path d="M 95.500 314.410 L 93.500 316.567 95.500 314.410 L 97.500 312.253 95.500 314.410 "/></g>
<g fill="#FEE4C2FE" stroke="#FEE4C2FE">
<path d="M 19.500 28.410 L 17.500 30.567 19.500 28.410 L 21.500 26.253 19.500 28.410 "/></g>
<g fill="#FE8878FE" stroke="#FE8878FE">
<path d="M 101.500 307.410 L 99.500 309.567 101.500 307.410 L 103.500 305.253 101.500 307.410 "/></g>
<g fill="#FE8878FE" stroke="#FE8878FE">
<path d="M 46.000 285.000 L 48.500 287.500 46.000 285.000 L 43.500 282.500 46.000 285.000 "/></g>
<g fill="#FE8878FE" stroke="#FE8878FE">
<path d="M 120.500 267.410 L 118.500 269.567 120.500 267.410 L 122.500 265.253 120.500 267.410 "/></g>
<g fill="#FEE4C2FE" stroke="#FEE4C2FE">
<path d="M 39.000 296.000 L 41.000 298.000 39.000 296.000 L 37.000 294.000 39.000 296.000 "/></g>
<g fill="#FE8878FE" stroke="#FE8878FE">
<path d="M 43.000 300.000 L 45.000 302.000 43.000 300.000 L 41.000 298.000 43.000 300.000 "/></g>
<g fill="#FE8878FE" stroke="#FE8878FE">
<path d="M 110.000 297.888 L 108.500 299.563 110.000 297.888 L 111.500 296.212 110.000 297.888 "/></g>
<g fill="#FE8878FE" stroke="#FE8878FE">
<path d="M 53.000 293.000 L 55.000 295.000 53.000 293.000 L 51.000 291.000 53.000 293.000 "/></g>
<g fill="#FE8878FE" stroke="#FE8878FE">
<path d="M 36.000 292.000 L 38.000 294.000 36.000 292.000 L 34.000 290.000 36.000 292.000 "/></g>
<g fill="#FE8878FE" stroke="#FE8878FE">
<path d="M 100.000 290.888 L 98.500 292.563 100.000 290.888 L 101.500 289.212 100.000 290.888 "/></g>
<g fill="#FE8878FE" stroke="#FE8878FE">
<path d="M 117.000 289.888 L 115.500 291.563 117.000 289.888 L 118.500 288.212 117.000 289.888 "/></g>
<g fill="#FE8878FE" stroke="#FE8878FE">
<path d="M 29.000 284.000 L 31.000 286.000 29.000 284.000 L 27.000 282.000 29.000 284.000 "/></g>
<g fill="#FE8878FE" stroke="#FE8878FE">
<path d="M 107.000 282.888 L 105.500 284.563 107.000 282.888 L 108.500 281.212 107.000 282.888 "/></g>
<g fill="#FE8878FE" stroke="#FE8878FE">
<path d="M 124.000 281.888 L 122.500 283.563 124.000 281.888 L 125.500 280.212 124.000 281.888 "/></g>
<g fill="#FE8878FE" stroke="#FE8878FE">
<path d="M 40.000 278.000 L 42.000 280.000 40.000 278.000 L 38.000 276.000 40.000 278.000 "/></g>
<g fill="#FE8878FE" stroke="#FE8878FE">
<path d="M 23.000 277.000 L 25.000 279.000 23.000 277.000 L 21.000 275.000 23.000 277.000 "/></g>
<g fill="#FE8878FE" stroke="#FE8878FE">
<path d="M 114.000 274.888 L 112.500 276.563 114.000 274.888 L 115.500 273.212 114.000 274.888 "/></g>
<g fill="#FE8878FE" stroke="#FE8878FE">
<path d="M 34.000 271.000 L 36.000 273.000 34.000 271.000 L 32.000 269.000 34.000 271.000 "/></g>
<g fill="#FE8878FE" stroke="#FE8878FE">
<path d="M 17.000 270.000 L 19.000 272.000 17.000 270.000 L 15.000 268.000 17.000 270.000 "/></g>
<g fill="#FE8878FE" stroke="#FE8878FE">
<path d="M 136.000 267.888 L 134.500 269.563 136.000 267.888 L 137.500 266.212 136.000 267.888 "/></g>
<g fill="#FE8878FE" stroke="#FE8878FE">
<path d="M 10.000 262.000 L 12.000 264.000 10.000 262.000 L 8.000 260.000 10.000 262.000 "/></g>
<g fill="#FE8878FE" stroke="#FE8878FE">
<path d="M 115.000 242.000 C 115.825 242.533 116.950 242.969 117.500 242.969 C 118.050 242.969 117.825 242.533 117.000 242.000 C 116.175 241.467 115.050 241.031 114.500 241.031 C 113.950 241.031 114.175 241.467 115.000 242.000 "/></g>
<g fill="#FE8878FE" stroke="#FE8878FE">
<path d="M 98.027 171.702 C 100.356 173.305 100.420 173.305 99.128 171.702 C 98.373 170.766 97.260 170.000 96.655 170.000 C 96.050 170.000 96.668 170.766 98.027 171.702 "/></g>
<g fill="#FE8878FE" stroke="#FE8878FE">
<path d="M 51.872 171.702 C 50.580 173.305 50.644 173.305 52.973 171.702 C 54.332 170.766 54.950 170.000 54.345 170.000 C 53.740 170.000 52.627 170.766 51.872 171.702 "/></g>
<g fill="#FE8878FE" stroke="#FE8878FE">
<path d="M 43.000 157.000 L 45.000 159.000 43.000 157.000 L 41.000 155.000 43.000 157.000 "/></g>
<g fill="#FE8878FE" stroke="#FE8878FE">
<path d="M 55.000 140.000 L 57.000 142.000 55.000 140.000 L 53.000 138.000 55.000 140.000 "/></g>
<g fill="#FEE4C2FE" stroke="#FEE4C2FE">
<path d="M 47.500 305.500 L 49.000 307.000 47.500 305.500 L 46.000 304.000 47.500 305.500 "/></g>
<g fill="#FEE4C2FE" stroke="#FEE4C2FE">
<path d="M 105.378 303.378 L 104.500 304.256 105.378 303.378 L 106.256 302.500 105.378 303.378 "/></g>
<g fill="#FEE4C2FE" stroke="#FEE4C2FE">
<path d="M 113.378 294.378 L 112.500 295.256 113.378 294.378 L 114.256 293.500 113.378 294.378 "/></g>
<g fill="#FEE4C2FE" stroke="#FEE4C2FE">
<path d="M 32.500 288.500 L 34.000 290.000 32.500 288.500 L 31.000 287.000 32.500 288.500 "/></g>
<g fill="#FEE4C2FE" stroke="#FEE4C2FE">
<path d="M 120.378 286.378 L 119.500 287.256 120.378 286.378 L 121.256 285.500 120.378 286.378 "/></g>
<g fill="#FEE4C2FE" stroke="#FEE4C2FE">
<path d="M 19.500 273.500 L 21.000 275.000 19.500 273.500 L 18.000 272.000 19.500 273.500 "/></g>
<g fill="#FEE4C2FE" stroke="#FEE4C2FE">
<path d="M 133.378 271.378 L 132.500 272.256 133.378 271.378 L 134.256 270.500 133.378 271.378 "/></g>
<g fill="#FEE4C2FE" stroke="#FEE4C2FE">
<path d="M 13.500 266.500 L 15.000 268.000 13.500 266.500 L 12.000 265.000 13.500 266.500 "/></g>
<g fill="#FEE4C2FE" stroke="#FEE4C2FE">
<path d="M 139.378 264.378 L 138.500 265.256 139.378 264.378 L 140.256 263.500 139.378 264.378 "/></g>
<g fill="#FE8878FE" stroke="#FE8878FE">
<path d="M 130.378 274.378 L 129.500 275.256 130.378 274.378 L 131.256 273.500 130.378 274.378 "/></g>
<g fill="#FE8878FE" stroke="#FE8878FE">
<path d="M 28.500 264.500 L 30.000 266.000 28.500 264.500 L 27.000 263.000 28.500 264.500 "/></g>
<g fill="#FE8878FE" stroke="#FE8878FE">
<path d="M 142.378 260.378 L 141.500 261.256 142.378 260.378 L 143.256 259.500 142.378 260.378 "/></g>
<g fill="#FE8878FE" stroke="#FE8878FE">
<path d="M 106.843 210.613 C 107.446 211.651 107.953 211.964 107.970 211.309 C 107.986 210.654 107.493 209.805 106.874 209.422 C 106.045 208.910 106.037 209.224 106.843 210.613 "/></g>
<g fill="#FE8878FE" stroke="#FE8878FE">
<path d="M 52.500 209.500 L 54.000 211.000 52.500 209.500 L 51.000 208.000 52.500 209.500 "/></g>
<g fill="#FE8878FE" stroke="#FE8878FE">
<path d="M 58.387 171.157 C 59.776 171.963 60.090 171.955 59.578 171.126 C 59.195 170.507 58.346 170.014 57.691 170.030 C 57.036 170.047 57.349 170.554 58.387 171.157 "/></g>
<g fill="#FE8878FE" stroke="#FE8878FE">
<path d="M 108.378 157.378 L 107.500 158.256 108.378 157.378 L 109.256 156.500 108.378 157.378 "/></g>
<g fill="#FE8878FE" stroke="#FE8878FE">
<path d="M 94.750 141.666 C 94.338 142.033 94.030 142.821 94.066 143.417 C 94.102 144.013 94.439 143.712 94.816 142.750 C 95.192 141.787 95.163 141.300 94.750 141.666 "/></g>
<g fill="#FE8878FE" stroke="#FE8878FE">
<path d="M 17.378 31.378 L 16.500 32.256 17.378 31.378 L 18.256 30.500 17.378 31.378 "/></g>
<g fill="#FE8878FE" stroke="#FE8878FE">
<path d="M 24.378 24.378 L 23.500 25.256 24.378 24.378 L 25.256 23.500 24.378 24.378 "/></g>
<g fill="#FE8878FE" stroke="#FE8878FE">
<path d="M 125.500 23.500 L 127.000 25.000 125.500 23.500 L 124.000 22.000 125.500 23.500 "/></g>
<g fill="#D2BE48FE" stroke="#D2BE48FE">
<path d="M 42.378 139.378 L 41.500 140.256 42.378 139.378 L 43.256 138.500 42.378 139.378 "/></g>
<g fill="#001A2EFE" stroke="#001A2EFE">
<path d="M 131.500 29.500 L 133.000 31.000 131.500 29.500 L 130.000 28.000 131.500 29.500 "/></g>
</svg>
